# xmcd
#
# Track frame offsets:
#	150
#	36853
#	58421
#	77905
#	100194
#	115434
#	130136
#	160024
#	176620
#	197098
#	215486
#	248616
#	270578
#	288973
#	303250
#	321002
#	336581
#
# Disc length: 4714 seconds
#
# Revision: 0
# Processed by: cddbd v1.5.2PL0 Copyright (c) Steve Scherf et al.
# Submitted via: audiograbber 1.83.01
#
DISCID=f9126811
DTITLE=gemischt - Die Hits des Ostens Vol. 3
DYEAR=1900
DGENRE=
TTITLE0=Karat - Albatros
TTITLE1=Electra - Vier Milliarden in einem Boot
TTITLE2=Ute Freudenberg - Manchmal braucht jeder einen Freund
TTITLE3=Puhdys - Rockerrente
TTITLE4=Pankow - Rock  ´nd Roll im Stadtpark
TTITLE5=Silly - Die wilde Mathilde
TTITLE6=Wir - Nach dem Konzert
TTITLE7=Brot and Salz - Nie zuvor
TTITLE8=Engerling - Engerlings Blues
TTITLE9=Bayon - Haus der Kindheit
TTITLE10=Horst-Krüger-Band - Die Tagesreise
TTITLE11=City - Der King vom Prenzlauer Berg
TTITLE12=Nina Hagen und Stern-Combo - Zieh die Schuhe aus
TTITLE13=Transit - Ich fahr an die Küste
TTITLE14=Renft - Als ich wie ein Vogel war
TTITLE15=Gerhard Gundermann - Halte durch
TTITLE16=Babylon - Wir rocken los
EXTD=
EXTT0=
EXTT1=
EXTT2=
EXTT3=
EXTT4=
EXTT5=
EXTT6=
EXTT7=
EXTT8=
EXTT9=
EXTT10=
EXTT11=
EXTT12=
EXTT13=
EXTT14=
EXTT15=
EXTT16=
PLAYORDER=
